<?xml version="1.0" encoding="utf-8"?>
<!-- Generator: Adobe Illustrator 22.1.0, SVG Export Plug-In . SVG Version: 6.00 Build 0)  -->
<svg version="1.1" xmlns="http://www.w3.org/2000/svg" xmlns:xlink="http://www.w3.org/1999/xlink" x="0px" y="0px"
	 viewBox="0 0 341 195" style="enable-background:new 0 0 341 195;" xml:space="preserve">
<style type="text/css">
	.st0{fill:#FFDCDC;}
	.st1{fill:#24272B;}
</style>
<g id="Layer_2">
	<g id="Isolation_Mode_2_">
	</g>
</g>
<g id="Layer_3">
	<g id="Isolation_Mode_1_">
		<g>
			<path class="st0" d="M297.5,101.1c-0.2-0.5-0.4-1.1-0.8-1.6c-0.3-0.5-0.7-1-1.1-1.5c-12.3-19.9-29.5-36.7-50.1-48.6
				c-0.5-0.5-1.2-1-1.8-1.3c-0.7-0.4-1.4-0.7-2.1-0.9c-20.2-10.9-43.4-17.4-68.1-17.8c-0.7-0.2-1.5-0.3-2.3-0.3
				c-0.8,0-1.5,0.1-2.3,0.3c-24.7,0.3-47.9,6.6-68.1,17.5c-0.7,0.2-1.4,0.5-2.1,0.9c-0.7,0.4-1.3,0.8-1.8,1.3
				C76.3,61.1,59,77.8,46.6,97.7c-0.4,0.5-0.8,0.9-1.1,1.5c-0.3,0.5-0.5,1-0.7,1.5c-8.4,14.3-14.3,30.2-17,47.1l20.4-1.5
				c2.1-10.2,5.5-19.9,10-29l25.3,14.1c1.6,0.9,3.3,1.3,4.9,1.3c3.4,0,6.8-1.7,8.6-4.8c2.7-4.6,1.1-10.4-3.6-13.1l-25.2-14.1
				c8.7-12.1,19.6-22.6,32.2-30.9l14.6,24.4c1.8,3.1,5.2,4.8,8.6,4.8c1.7,0,3.4-0.4,4.9-1.3c4.7-2.6,6.4-8.5,3.6-13.1l-14.5-24.4
				c13.5-6.2,28.2-10.1,43.8-11.2v28.2c0,5.3,4.4,9.6,9.9,9.6s9.9-4.3,9.9-9.6V49.1c15.6,1.2,30.3,5.2,43.7,11.4l-14.6,24.4
				c-2.7,4.6-1.1,10.4,3.6,13.1c1.6,0.9,3.3,1.3,4.9,1.3c3.4,0,6.8-1.7,8.6-4.8l14.5-24.3c12.5,8.4,23.4,18.9,32,31l-25.3,14.1
				c-4.7,2.6-6.4,8.5-3.6,13.1c1.8,3.1,5.2,4.8,8.6,4.8c1.7,0,3.4-0.4,4.9-1.3l25.3-14.1c6.4,13,10.5,27.3,11.8,42.4h-29.4
				c-5.5,0-9.9,4.3-9.9,9.6c0,5.3,4.4,9.6,9.9,9.6h39.7c5.5,0,9.9-4.3,9.9-9.6C316,144.8,309.3,121.4,297.5,101.1z"/>
		</g>
	</g>
	<g>
		<g>
			<path class="st1" d="M169,147.7L10.5,159C4.7,159,0,163.7,0,169.5S4.7,180,10.5,180L169,191.3c1,0.1,2,0.2,3.1,0.2
				c12.1,0,21.9-9.8,21.9-22s-9.8-22-21.9-22C171,147.5,170,147.6,169,147.7z"/>
		</g>
	</g>
</g>
<g id="_x34_">
	<g id="Isolation_Mode">
	</g>
</g>
<g id="Layer_1">
</g>
</svg>
