<?xml version="1.0" encoding="utf-8"?>
<!-- Generator: Adobe Illustrator 22.1.0, SVG Export Plug-In . SVG Version: 6.00 Build 0)  -->
<svg version="1.1" xmlns="http://www.w3.org/2000/svg" xmlns:xlink="http://www.w3.org/1999/xlink" x="0px" y="0px"
	 viewBox="0 0 341 195" style="enable-background:new 0 0 341 195;" xml:space="preserve">
<style type="text/css">
	.st0{fill:#FFDCDC;}
	.st1{fill:#24272B;}
</style>
<g id="Layer_2">
	<g id="Isolation_Mode_2_">
		<g>
			<path class="st0" d="M117.5,60.3c9.4-4.3,19.4-7.5,30-9.5l1.4-19.7c-17.2,2.6-33.4,8-48.1,15.9c-0.7,0.2-1.4,0.5-2.1,0.9
				c-0.7,0.4-1.3,0.8-1.8,1.3C76.3,61.1,59,77.8,46.6,97.7c-0.4,0.5-0.8,0.9-1.1,1.5c-0.3,0.5-0.5,1-0.7,1.5
				C32.9,120.9,26.1,144.2,26,169c0,0.1,0,0.1,0,0.2c0,0,0,0.1,0,0.1c0,0.1,0,0.3,0,0.4h0c0.3,5.1,4.6,9.1,9.9,9.1h39.7
				c5.5,0,9.9-4.3,9.9-9.6s-4.4-9.6-9.9-9.6H46.3c1.3-15.1,5.4-29.3,11.9-42.3l25.3,14.1c1.6,0.9,3.3,1.3,4.9,1.3
				c3.4,0,6.8-1.7,8.6-4.8c2.7-4.6,1.1-10.4-3.6-13.1l-25.2-14.1c8.7-12.1,19.6-22.6,32.2-30.9l14.6,24.4c1.8,3.1,5.2,4.8,8.6,4.8
				c1.7,0,3.4-0.4,4.9-1.3c4.7-2.6,6.4-8.5,3.6-13.1L117.5,60.3z"/>
			<path class="st0" d="M297.5,101.1c-0.2-0.5-0.4-1.1-0.8-1.6c-0.3-0.5-0.7-1-1.1-1.5c-12.3-19.9-29.5-36.7-50.1-48.6
				c-0.5-0.5-1.2-1-1.8-1.3c-0.7-0.4-1.4-0.7-2.1-0.9c-14.8-8-31.2-13.6-48.5-16.1l1.4,19.7c10.7,2,20.9,5.2,30.4,9.7l-14.6,24.4
				c-2.7,4.6-1.1,10.4,3.6,13.1c1.6,0.9,3.3,1.3,4.9,1.3c3.4,0,6.8-1.7,8.6-4.8l14.5-24.3c12.5,8.4,23.4,18.9,32,31l-25.3,14.1
				c-4.7,2.6-6.4,8.5-3.6,13.1c1.8,3.1,5.2,4.8,8.6,4.8c1.7,0,3.4-0.4,4.9-1.3l25.3-14.1c6.4,13,10.5,27.3,11.8,42.4h-29.4
				c-5.5,0-9.9,4.3-9.9,9.6c0,5.3,4.4,9.6,9.9,9.6h39.7c5.5,0,9.9-4.3,9.9-9.6C316,144.8,309.3,121.4,297.5,101.1z"/>
		</g>
	</g>
	<g>
		<path class="st1" d="M192.8,167.5L181.5,9c0-5.8-4.7-10.5-10.5-10.5S160.5,3.2,160.5,9l-11.3,158.5c-0.1,1-0.2,2-0.2,3.1
			c0,12.1,9.8,21.9,22,21.9s22-9.8,22-21.9C193,169.5,192.9,168.5,192.8,167.5z"/>
	</g>
</g>
<g id="Layer_3">
	<g id="Isolation_Mode_1_">
	</g>
</g>
<g id="_x34_">
	<g id="Isolation_Mode">
	</g>
</g>
<g id="Layer_1">
</g>
</svg>
