<?xml version="1.0" encoding="utf-8"?>
<!-- Generator: Adobe Illustrator 22.1.0, SVG Export Plug-In . SVG Version: 6.00 Build 0)  -->
<svg version="1.1" xmlns="http://www.w3.org/2000/svg" xmlns:xlink="http://www.w3.org/1999/xlink" x="0px" y="0px"
	 viewBox="0 0 340 254" style="enable-background:new 0 0 340 254;" xml:space="preserve">
<style type="text/css">
	.st0{fill:#FFDCDC;}
	.st1{fill:#24272B;}
</style>
<g id="Layer_2">
	<g id="Isolation_Mode_2_">
	</g>
</g>
<g id="Layer_3">
	<g id="Isolation_Mode_1_">
	</g>
</g>
<g id="_x34_">
	<g id="Isolation_Mode">
	</g>
</g>
<g id="Layer_1">
	<g>
		<path class="st0" d="M154.5,67.4c15.5,0,26.9,4.8,37.4,14.4c1.4,1.2,1.4,3.1,0.2,4.3L180,98.6c-1.1,1.1-2.8,1.1-3.9,0
			c-5.7-5.1-13.3-7.9-20.9-7.9c-17.5,0-30.3,14.5-30.3,31.9c0,17.2,13,31.4,30.5,31.4c7.3,0,15.2-2.6,20.7-7.4
			c1.1-0.9,3.1-0.9,4,0.2l12.1,12.8c1.1,1.1,0.9,3.1-0.2,4.2c-10.5,10.2-23.8,15-37.6,15c-30.9,0-55.8-24.6-55.8-55.5
			C98.7,92.3,123.6,67.4,154.5,67.4z"/>
	</g>
	<path class="st0" d="M241.8,24.4c0-1.2-1-2.2-2.2-2.2h-87.5c-1.2,0-2.2,1-2.2,2.2v16.4c0,1.2,1,2.2,2.2,2.2h66.7
		c1.2,0,2.2,1,2.2,2.2l0,68.9c0,0,0,30.8,0,40.5c0,28.3-18.8,56.8-68,56.8h-1c-1.2,0-2.2,1-2.2,2.2V230c0,1.2,1,2.2,2.2,2.2h2
		c0,0,0.1,0,0.1,0c53.5-0.4,87.6-32.2,87.6-77.6C241.9,133.3,241.8,24.4,241.8,24.4z"/>
</g>
</svg>
